<svg width="64" height="64" viewBox="0 0 64 64" fill="none" xmlns="http://www.w3.org/2000/svg">
<g clip-path="url(#clip0_199_2550)">
<path d="M53.5204 20.9469C53.3905 20.1832 53.2803 19.6085 52.7449 18.3371C52.3985 17.5144 51.997 16.735 51.5207 15.9831C50.1824 13.8732 48.3205 12.3617 46.1358 11.2083C43.7818 9.96835 41.2311 9.4212 38.6173 9.16927C37.5112 9.06299 36.3893 8.9882 35.2675 9.00001C32.8309 9.03543 30.3982 9.01181 27.9616 9.01181C23.6198 9.01575 19.2819 9.01181 14.9401 9.01575C14.7 9.01575 14.4402 8.95277 14.1686 9.1181C14.6016 10.3384 15.0188 11.5311 15.4518 12.7159C15.6565 13.2749 15.8297 13.8181 15.8297 14.4322C15.8179 26.8514 15.8219 39.2706 15.8258 51.6938C15.8258 52.0599 15.7786 52.4063 15.6565 52.7487C15.2511 53.9021 14.8456 55.0594 14.4481 56.2167C14.1883 56.9724 14.2119 57 14.9992 57H34.5629C35.1809 57 35.1966 56.9803 34.9919 56.3977C34.5432 55.1224 34.0826 53.8549 33.6142 52.5873C33.4489 52.1465 33.3505 51.7056 33.3505 51.2332C33.3544 47.8913 33.3544 44.5454 33.3544 41.2034C33.3544 40.4988 33.3583 40.4909 34.0354 40.4988C35.4682 40.5185 36.8971 40.4122 38.326 40.2626C39.8652 40.1051 41.3688 39.806 42.8253 39.3021C45.5532 38.3574 48.0213 36.9797 50.021 34.8383C50.8358 33.9644 51.5168 33.0118 52.0915 31.9726C53.1228 30.1147 53.6149 28.0874 53.7723 25.9933C53.8983 24.3085 53.8353 22.8048 53.5204 20.9469ZM51.6073 25.9224C51.501 27.926 50.8948 29.8076 49.8635 31.5475C49.3833 32.3544 48.8007 33.0827 48.1433 33.7282C47.2852 34.5706 46.3169 35.2949 45.258 35.8814C43.5299 36.8419 41.6916 37.5268 39.7549 37.9126C38.8929 38.0858 38.0111 38.1645 37.1294 38.2472C35.3108 38.4164 33.4922 38.3102 31.6775 38.3535C31.1933 38.3653 31.1815 38.3692 31.1815 38.8652C31.1776 43.1165 31.1697 47.3717 31.1894 51.6229C31.1933 52.4299 31.4964 53.1896 31.7995 53.9336C32.2719 55.0869 32.0121 54.8547 31.2052 54.8547C26.8004 54.8586 22.3995 54.8547 17.9947 54.8547C17.7625 54.8547 17.5263 54.898 17.2389 54.7878C17.3216 54.3784 17.4554 54.028 17.5972 53.6777C17.8412 53.0873 17.9711 52.4811 17.9711 51.8316V14.381C17.9711 13.7197 17.8688 13.0859 17.6208 12.4679C17.4633 12.0861 17.2941 11.6925 17.2586 11.2713C17.4633 11.1178 17.6838 11.1847 17.8845 11.1847C24.1276 11.1807 30.3746 11.1453 36.6177 11.2044C39.1527 11.228 41.6601 11.6098 44.0259 12.6057C45.8169 13.3576 47.4426 14.3849 48.7338 15.8571C50.143 17.4632 50.9814 19.3408 51.3948 21.4428C51.686 22.9347 51.6821 24.4305 51.6034 25.9224H51.6073Z" fill="#E8E4A7"/>
<path d="M30.1423 37.2984V38.0542C30.1423 42.4118 30.1463 46.7693 30.1384 51.1308C30.1384 51.9417 30.1935 52.7329 30.4966 53.4926C30.5281 53.5714 30.5439 53.654 30.4769 53.7682H18.7308C19.2426 52.1818 19.0694 50.5955 19.0694 49.0209C19.0812 37.7433 19.0733 26.4656 19.0772 15.1918C19.0772 14.2392 19.0379 13.2906 18.7505 12.3852C18.9001 12.212 19.0812 12.2711 19.2386 12.2711C24.7417 12.2711 30.2447 12.2592 35.7477 12.2711C38.0584 12.2789 40.3493 12.4994 42.5616 13.2197C44.1243 13.7275 45.565 14.4597 46.8286 15.5186C48.9818 17.3175 50.1076 19.6675 50.4658 22.4111C50.7138 24.2966 50.6469 26.1704 50.1824 28.0165C49.5211 30.6224 48.0646 32.6968 45.8563 34.2241C43.7385 35.6885 41.3925 36.582 38.8417 36.9639C37.1648 37.2158 35.4761 37.2906 33.7835 37.2984C32.5986 37.2984 31.4177 37.2984 30.1423 37.2984ZM30.1423 24.6785V32.1064C30.1423 32.6024 30.1502 32.6063 30.6108 32.6102C31.3941 32.6102 32.1774 32.6339 32.9608 32.6102C33.8937 32.5787 34.8187 32.4685 35.6808 32.0828C37.275 31.3742 38.2513 30.0988 38.7787 28.4967C39.5699 26.0877 39.6369 23.6275 38.9559 21.1869C38.141 18.2622 36.1177 16.7743 33.0867 16.7624H30.6738C30.0912 16.7624 30.1423 16.7113 30.1423 17.3214V24.6824" fill="#532507"/>
<path d="M31.1776 24.6785V18.7149C31.1776 18.5654 31.1697 18.4197 31.1776 18.2701C31.2051 17.8686 31.2642 17.7899 31.6775 17.7938C32.4136 17.7978 33.1458 17.7938 33.8897 17.8844C34.6731 17.9788 35.358 18.2465 36.0154 18.6362C36.9247 19.1716 37.401 20.0415 37.7592 20.9784C38.1213 21.927 38.2866 22.9229 38.2945 23.9464C38.3024 25.2139 38.2552 26.4735 37.9088 27.7017C37.5387 29.0085 36.8577 30.091 35.7083 30.8429C35.0352 31.2838 34.2676 31.4294 33.4882 31.4884C32.8978 31.5317 32.3034 31.5042 31.7129 31.5003C31.1933 31.4924 31.1854 31.4884 31.1815 30.961C31.1776 29.3982 31.1815 27.8316 31.1815 26.2688V24.6825M33.4016 20.0218C33.2953 20.1911 33.3347 20.384 33.3347 20.569V29.0046C33.3268 29.3038 33.4882 29.3549 33.7441 29.3116C34.6927 29.1621 35.2871 28.5992 35.6217 27.7253C36.283 25.9933 36.287 24.2101 35.9445 22.4309C35.6532 20.9232 34.9565 20.0494 33.3977 20.0218" fill="#E8E4A7"/>
</g>
<defs>
<clipPath id="clip0_199_2550">
<rect width="39.6628" height="48" fill="white" transform="translate(14.1686 9)"/>
</clipPath>
</defs>
</svg>
